<?xml version="1.0" encoding="utf-8"?>
<svg width="10px" height="10px" viewBox="0 0 10 10" version="1.1" xmlns:xlink="http://www.w3.org/1999/xlink" xmlns="http://www.w3.org/2000/svg">
  <g id="icon-rss">
    <path d="M1.28971 7.3864C0.578592 7.3864 2.04082e-05 7.96497 2.04082e-05 8.67619C2.04082e-05 9.38721 0.578592 9.96568 1.28971 9.96568C2.00084 9.96568 2.57941 9.38721 2.57941 8.67619C2.57941 7.96497 2.00073 7.3864 1.28971 7.3864" id="Fill-1" fill="#777777" fill-rule="evenodd" stroke="none" />
    <path d="M0.2145 3.71244C0.158888 3.71111 0.105724 3.73121 0.0658265 3.76979C0.0260306 3.80825 0.00368367 3.86121 0.00368367 3.91652L0.00368367 5.57132C0.00368367 5.6803 0.0895 5.77009 0.19848 5.77519C2.37542 5.87448 4.09195 7.59101 4.19123 9.76795C4.19623 9.87683 4.28603 9.96264 4.39511 9.96264L6.05001 9.96264C6.10532 9.96264 6.15838 9.94019 6.19674 9.9007C6.23501 9.86101 6.25572 9.80723 6.25409 9.75203C6.20134 8.1655 5.55123 6.6706 4.42368 5.54295C3.29593 4.4153 1.80113 3.7653 0.2145 3.71244" id="Fill-3" fill="#777777" fill-rule="evenodd" stroke="none" />
    <path d="M7.04619 2.92022C5.21619 1.09043 2.78915 0.0532857 0.211806 0.00022449C0.156704 -0.00242857 0.103847 0.0200204 0.0648673 0.0584898C0.0256837 0.0969592 0.00354082 0.149408 0.00354082 0.204204L0.00354082 1.85808C0.00354082 1.9688 0.0918061 2.05931 0.20252 2.06216C4.34548 2.16624 7.80038 5.62114 7.90415 9.76359C7.90681 9.87441 7.99742 9.96257 8.10813 9.96257L9.76201 9.96257C9.81681 9.96257 9.86946 9.94053 9.90793 9.90124C9.94619 9.86206 9.96732 9.8091 9.96609 9.7542C9.91293 7.17676 8.87579 4.74961 7.04619 2.92022" id="Fill-5" fill="#777777" fill-rule="evenodd" stroke="none" />
  </g>
</svg>