<svg width="122" height="24" viewBox="0 0 122 24" fill="none" xmlns="http://www.w3.org/2000/svg">
<path d="M115.539 18.6939C116.29 17.8167 116.667 16.6985 116.669 15.3393C116.67 13.9802 116.294 12.862 115.539 11.9847C115.186 11.5558 114.739 11.2138 114.232 10.9856C113.725 10.7574 113.172 10.649 112.616 10.6689C112.056 10.6512 111.499 10.7604 110.988 10.9883C110.476 11.2162 110.023 11.5569 109.662 11.9847C108.93 12.8637 108.563 13.9819 108.563 15.3393C108.563 16.6968 108.93 17.815 109.662 18.6939C110.023 19.1218 110.476 19.4625 110.988 19.6904C111.499 19.9183 112.056 20.0275 112.616 20.0098C113.172 20.0297 113.725 19.9213 114.232 19.6931C114.739 19.4648 115.186 19.1229 115.539 18.6939ZM116.544 8.87958V0.0400391H121.005V23.5528H116.883V21.5471C115.795 23.1353 114.057 23.9295 111.67 23.9295C109.344 23.9295 107.5 23.1141 106.14 21.4835C104.78 19.8529 104.1 17.8048 104.1 15.3393C104.1 12.8739 104.78 10.8258 106.14 9.19519C107.5 7.56455 109.344 6.74923 111.67 6.74923C112.669 6.72909 113.659 6.94356 114.559 7.37536C115.333 7.7069 116.013 8.22353 116.539 8.87958H116.544Z" fill="#303030"/>
<path d="M93.9203 10.3227C93.0163 10.2878 92.1317 10.59 91.4387 11.1702C90.7678 11.7514 90.3235 12.5498 90.1838 13.4253H97.6594C97.5286 12.5537 97.0954 11.7556 96.4352 11.1702C95.7313 10.586 94.835 10.2839 93.9203 10.3227ZM102.059 16.6246H90.12C90.2663 17.753 90.6854 18.6201 91.3774 19.2259C92.0695 19.8316 92.9817 20.1243 94.1142 20.104C94.7796 20.1152 95.4378 19.965 96.0322 19.6662C96.5955 19.3765 97.0394 18.8993 97.287 18.3172H101.766C101.304 19.9592 100.295 21.3954 98.9066 22.3896C97.4727 23.4207 95.7409 23.9569 93.9739 23.9167C91.5424 23.9167 89.553 23.1116 88.0056 21.5013C86.4583 19.891 85.6889 17.8277 85.6974 15.3113C85.6974 12.8679 86.4728 10.8317 88.0235 9.20279C89.5742 7.57385 91.5534 6.75853 93.9611 6.75684C96.3688 6.75684 98.3243 7.57215 99.8274 9.20279C101.33 10.8334 102.096 12.8696 102.123 15.3113L102.059 16.6246Z" fill="#303030"/>
<path d="M75.5139 10.3227C74.6099 10.2878 73.7252 10.59 73.0322 11.1702C72.3614 11.7519 71.9164 12.5499 71.7748 13.4253H79.2529C79.1222 12.5537 78.6889 11.7556 78.0287 11.1702C77.3249 10.5861 76.4285 10.2839 75.5139 10.3227ZM83.6577 16.6246H71.7212C71.8666 17.7522 72.2874 18.6201 72.9761 19.2259C73.6647 19.8316 74.5804 20.104 75.7102 20.104C76.3749 20.1159 77.0325 19.9656 77.6257 19.6662C78.1897 19.3766 78.6345 18.8995 78.8831 18.3172H83.3746C82.9143 19.9594 81.9067 21.3959 80.518 22.3896C79.0841 23.4207 77.3522 23.9569 75.5853 23.9167C73.1555 23.9167 71.166 23.1116 69.617 21.5013C68.068 19.891 67.2901 17.8277 67.2833 15.3113C67.2833 12.8679 68.0586 10.8317 69.6094 9.20279C71.1601 7.57385 73.1385 6.75853 75.5445 6.75684C77.9556 6.75684 79.911 7.57215 81.4107 9.20279C82.9104 10.8334 83.6756 12.8696 83.7062 15.3113L83.6577 16.6246Z" fill="#303030"/>
<path d="M66.604 6.99891V11.1705C66.3146 11.1099 66.0198 11.0783 65.7241 11.0763C64.4063 11.0763 63.4116 11.4208 62.7399 12.1097C62.0683 12.7986 61.7435 13.8854 61.7656 15.3701V23.553H57.3047V7.12617H61.4213V9.25652C62.3616 7.72939 63.9115 6.96582 66.0709 6.96582L66.604 6.99891Z" fill="#303030"/>
<path d="M35.3045 20.7625C33.1927 18.6296 32.1368 15.8392 32.1368 12.3913C32.1368 8.94333 33.1944 6.15293 35.3096 4.02004C37.4232 1.88884 40.1064 0.823242 43.3591 0.823242C46.1868 0.823242 48.5852 1.60717 50.5542 3.17502C52.5232 4.74288 53.7279 6.86389 54.1683 9.53807H49.2534C48.983 8.25422 48.2462 7.11556 47.1849 6.34127C46.0712 5.54719 44.7273 5.13948 43.3591 5.18066C41.3493 5.18066 39.779 5.82884 38.6483 7.1252C37.5176 8.42157 36.9624 10.1769 36.9828 12.3913C36.9828 14.5971 37.538 16.3525 38.6483 17.6573C39.7586 18.9622 41.3289 19.6103 43.3591 19.6019C44.7223 19.6429 46.0629 19.2478 47.1849 18.4743C48.2447 17.6833 48.9814 16.5358 49.2585 15.2444H54.1607C53.7407 17.9186 52.536 20.0396 50.5466 21.6075C48.5571 23.1753 46.1613 23.961 43.3591 23.9644C40.1064 23.9644 37.4215 22.8971 35.3045 20.7625Z" fill="#303030"/>
<path fill-rule="evenodd" clip-rule="evenodd" d="M4.79501 19.1775H0V23.9651H4.79501V19.1775ZM9.58747 9.60752H14.3825V14.3925H9.58747V19.175H4.79501V14.3925H9.58747V9.60752ZM4.84602 0.0400391H23.975V19.1292H19.129V4.87595H4.84602V0.0400391Z" fill="#303030"/>
</svg>